# xmcd
#
# Track frame offsets:
#	150
#	14076
#	27778
#	39812
#	55311
#	66239
#	82434
#	99001
#	110642
#	124989
#	141409
#	157276
#	171282
#	183564
#	220602
#
# Disc length: 3199 seconds
#
# Revision: 0
# Processed by: cddbd v1.5.2PL0 Copyright (c) Steve Scherf et al.
# Submitted via: EasyCDDAExtractor 11.1.0.1
#
DISCID=dd0c7d0f
DTITLE=Kristofferson, Kris - The Very Best Of Kristofferson Vol.2
DYEAR=1900
DGENRE=Country
TTITLE0=Highwayman
TTITLE1=Lover please
TTITLE2=Lucky in love
TTITLE3=Shake hands with the devil
TTITLE4=Jesus was a capricorn
TTITLE5=Casey's last ride
TTITLE6=Easter island
TTITLE7=Jesse younger
TTITLE8=Josie
TTITLE9=Killing time
TTITLE10=Late again (gettin' over you)
TTITLE11=Nobody lovers anybody anymore
TTITLE12=Prove it to you one more time again
TTITLE13=Silver (the hunger)
TTITLE14=The silver-tonqued devil and I
EXTD=
EXTT0=
EXTT1=
EXTT2=
EXTT3=
EXTT4=
EXTT5=
EXTT6=
EXTT7=
EXTT8=
EXTT9=
EXTT10=
EXTT11=
EXTT12=
EXTT13=
EXTT14=
PLAYORDER=
